<svg width="22" height="20" viewBox="0 0 22 20" fill="none" xmlns="http://www.w3.org/2000/svg">
<path fill-rule="evenodd" clip-rule="evenodd" d="M6.598 2.237C6.865 0.927 8.031 0 9.366 0H12.634C13.969 0 15.134 0.927 15.402 2.237C15.4315 2.38125 15.5088 2.51137 15.6212 2.60642C15.7337 2.70147 15.8748 2.75591 16.022 2.761H16.055C17.458 2.823 18.536 2.995 19.436 3.586C20.003 3.958 20.491 4.436 20.871 4.995C21.344 5.689 21.552 6.487 21.652 7.451C21.75 8.394 21.75 9.575 21.75 11.071V11.156C21.75 12.652 21.75 13.834 21.652 14.776C21.552 15.74 21.344 16.538 20.871 17.233C20.4889 17.7916 20.0015 18.2702 19.436 18.642C18.733 19.103 17.926 19.307 16.948 19.404C15.99 19.5 14.789 19.5 13.263 19.5H8.737C7.211 19.5 6.01 19.5 5.052 19.404C4.074 19.307 3.267 19.104 2.564 18.642C1.99844 18.2699 1.51099 17.7909 1.129 17.232C0.656 16.538 0.448 15.74 0.348 14.776C0.25 13.834 0.25 12.652 0.25 11.156V11.071C0.25 9.575 0.25 8.394 0.348 7.451C0.448 6.487 0.656 5.689 1.129 4.995C1.51099 4.43607 1.99844 3.95711 2.564 3.585C3.464 2.995 4.542 2.823 5.945 2.762L5.962 2.761H5.978C6.12516 2.75591 6.26632 2.70147 6.37879 2.60642C6.49125 2.51137 6.56846 2.38125 6.598 2.237ZM9.366 1.5C8.726 1.5 8.189 1.943 8.068 2.536C7.873 3.496 7.021 4.252 5.996 4.261C4.648 4.321 3.926 4.486 3.386 4.84C2.98545 5.10393 2.64004 5.44322 2.369 5.839C2.093 6.244 1.927 6.763 1.839 7.606C1.751 8.462 1.75 9.566 1.75 11.114C1.75 12.662 1.75 13.765 1.84 14.621C1.927 15.464 2.093 15.983 2.37 16.389C2.638 16.783 2.983 17.123 3.387 17.388C3.804 17.661 4.338 17.826 5.201 17.912C6.075 17.999 7.201 18 8.778 18H13.222C14.798 18 15.924 18 16.799 17.912C17.662 17.826 18.196 17.662 18.613 17.388C19.017 17.123 19.363 16.783 19.631 16.388C19.907 15.983 20.073 15.464 20.161 14.621C20.249 13.765 20.25 12.661 20.25 11.114C20.25 9.567 20.25 8.462 20.16 7.606C20.073 6.763 19.907 6.244 19.63 5.839C19.3591 5.44286 19.0136 5.10322 18.613 4.839C18.075 4.486 17.353 4.321 16.003 4.261C14.979 4.251 14.127 3.497 13.932 2.536C13.868 2.24027 13.7039 1.97569 13.4674 1.78694C13.2309 1.59819 12.9366 1.49684 12.634 1.5H9.366ZM11 8.5C10.4033 8.5 9.83097 8.73705 9.40901 9.15901C8.98705 9.58097 8.75 10.1533 8.75 10.75C8.75 11.3467 8.98705 11.919 9.40901 12.341C9.83097 12.7629 10.4033 13 11 13C11.5967 13 12.169 12.7629 12.591 12.341C13.0129 11.919 13.25 11.3467 13.25 10.75C13.25 10.1533 13.0129 9.58097 12.591 9.15901C12.169 8.73705 11.5967 8.5 11 8.5ZM7.25 10.75C7.25 9.75544 7.64509 8.80161 8.34835 8.09835C9.05161 7.39509 10.0054 7 11 7C11.9946 7 12.9484 7.39509 13.6517 8.09835C14.3549 8.80161 14.75 9.75544 14.75 10.75C14.75 11.7446 14.3549 12.6984 13.6517 13.4017C12.9484 14.1049 11.9946 14.5 11 14.5C10.0054 14.5 9.05161 14.1049 8.34835 13.4017C7.64509 12.6984 7.25 11.7446 7.25 10.75ZM16.25 7.75C16.25 7.55109 16.329 7.36032 16.4697 7.21967C16.6103 7.07902 16.8011 7 17 7H18C18.1989 7 18.3897 7.07902 18.5303 7.21967C18.671 7.36032 18.75 7.55109 18.75 7.75C18.75 7.94891 18.671 8.13968 18.5303 8.28033C18.3897 8.42098 18.1989 8.5 18 8.5H17C16.8011 8.5 16.6103 8.42098 16.4697 8.28033C16.329 8.13968 16.25 7.94891 16.25 7.75Z" fill="white"/>
</svg>
