<svg width="26" height="22" viewBox="0 0 26 22" fill="none" xmlns="http://www.w3.org/2000/svg">
<path d="M17.1663 8.125L11.1663 4.125C11.0532 4.04959 10.9218 4.00631 10.7861 3.99976C10.6504 3.99321 10.5155 4.02365 10.3957 4.08783C10.276 4.15201 10.1759 4.24751 10.1062 4.36414C10.0365 4.48076 9.9998 4.61413 10 4.75V12.75C9.9998 12.8859 10.0365 13.0192 10.1062 13.1359C10.1759 13.2525 10.276 13.348 10.3957 13.4122C10.5155 13.4763 10.6504 13.5068 10.7861 13.5002C10.9218 13.4937 11.0532 13.4504 11.1663 13.375L17.1663 9.375C17.2694 9.30659 17.354 9.21371 17.4125 9.10466C17.471 8.99561 17.5017 8.87376 17.5017 8.75C17.5017 8.62624 17.471 8.50439 17.4125 8.39534C17.354 8.28629 17.2694 8.19341 17.1663 8.125ZM11.5 11.3487V6.15125L15.3975 8.75L11.5 11.3487ZM23.75 0H1.75C1.28587 0 0.840752 0.184375 0.512563 0.512563C0.184375 0.840752 0 1.28587 0 1.75V15.75C0 16.2141 0.184375 16.6592 0.512563 16.9874C0.840752 17.3156 1.28587 17.5 1.75 17.5H23.75C24.2141 17.5 24.6592 17.3156 24.9874 16.9874C25.3156 16.6592 25.5 16.2141 25.5 15.75V1.75C25.5 1.28587 25.3156 0.840752 24.9874 0.512563C24.6592 0.184375 24.2141 0 23.75 0ZM24 15.75C24 15.8163 23.9737 15.8799 23.9268 15.9268C23.8799 15.9737 23.8163 16 23.75 16H1.75C1.6837 16 1.62011 15.9737 1.57322 15.9268C1.52634 15.8799 1.5 15.8163 1.5 15.75V1.75C1.5 1.6837 1.52634 1.62011 1.57322 1.57322C1.62011 1.52634 1.6837 1.5 1.75 1.5H23.75C23.8163 1.5 23.8799 1.52634 23.9268 1.57322C23.9737 1.62011 24 1.6837 24 1.75V15.75ZM25.5 20.75C25.5 20.9489 25.421 21.1397 25.2803 21.2803C25.1397 21.421 24.9489 21.5 24.75 21.5H0.75C0.551088 21.5 0.360322 21.421 0.21967 21.2803C0.0790175 21.1397 0 20.9489 0 20.75C0 20.5511 0.0790175 20.3603 0.21967 20.2197C0.360322 20.079 0.551088 20 0.75 20H24.75C24.9489 20 25.1397 20.079 25.2803 20.2197C25.421 20.3603 25.5 20.5511 25.5 20.75Z" fill="#F8F8F8"/>
</svg>
